<svg xmlns="http://www.w3.org/2000/svg" xmlns:xlink="http://www.w3.org/1999/xlink" viewBox="0 0 4710.96 7971"><defs><style>.cls-1{fill:none;}.cls-2{isolation:isolate;}.cls-3{fill:url(#Degradado_sin_nombre_207);}.cls-4{clip-path:url(#clip-path);}.cls-5{fill:#2b66be;opacity:0.1;mix-blend-mode:screen;}.cls-6{clip-path:url(#clip-path-2);}</style><linearGradient id="Degradado_sin_nombre_207" x1="1549.96" y1="3985.5" x2="3549.96" y2="3985.5" gradientUnits="userSpaceOnUse"><stop offset="0" stop-color="#69b1f2"/><stop offset="0.88" stop-color="#2a66bd"/></linearGradient><clipPath id="clip-path"><rect class="cls-1" x="1535.96" y="5163" width="1541" height="1757"/></clipPath><clipPath id="clip-path-2"><rect class="cls-1" x="2078.96" y="2708" width="1485" height="2086"/></clipPath></defs><title>FONDO BONOS CURVA</title><g class="cls-2"><g id="Capa_2" data-name="Capa 2"><g id="Capa_1-2" data-name="Capa 1"><polygon class="cls-3" points="3549.96 0 1549.96 0 1549.96 7908 3549.96 7971 3549.96 0"/><g class="cls-4"><path class="cls-5" d="M2392.31,6695.73c-237.37-410.5-469.53-812-705.42-1220-12.66,19.8-22.78,34.27-31.57,49.52q-289.86,501.45-579.46,1003.08c-111.91,193.81-224.68,387.17-334.8,582-21.25,37.59-48.17,51.13-88.82,50.44-76.25-1.3-152.56-.14-228.83-.45-69.5-.31-87.42-30.65-53-90.26q214.74-372.27,429.82-744.34,142.06-245.94,284-492c5.27-9.14,8.86-19.24,16.25-35.59-57.92,0-110.2-1.35-162.3,1.19-9.67.47-21.22,15.06-27.42,25.75-126.1,216.89-251.22,434.31-377.45,651.1-15.26,26.18-22.86,63.42-64.39,62.8-39.09-.6-47-35.36-61.83-60.9Q208.82,6136.69,12.5,5794.25c-10.19-17.87-17.2-48.23-8.69-63,8.62-15,38.11-24.31,58.82-25,82.36-2.7,164.85-.47,247.28-1.45,28.91-.33,49.11,9.75,63.51,35.1,42.53,74.84,86.34,148.93,128.92,223.72,19.86,34.93,16.23,59.09-8.75,73.92-26.56,15.78-51.51,6.46-72.13-28.8-35.38-60.51-70.64-121.1-104.43-182.5-11.4-20.72-24.71-30.46-49.3-29.46-46,1.85-92.12.55-147.24.55l348.56,604c27.78-47.33,51.87-87.93,75.53-128.8,101-174.54,202.49-348.82,302.3-524.05,18.18-31.91,40.89-44.74,77.22-43.93,81.17,1.83,162.4.16,243.61.73,58.31.41,77.56,34.1,48.62,84.21q-355.08,615-710.24,1230c-7.17,12.45-13.52,25.4-24.47,46.07,60.14,0,113.43,1.62,166.49-1.42,10.14-.57,21.52-18.18,28.48-30.15q151.15-259.89,301.16-520.44L1544.22,5533c31.36-54.29,62.48-108.72,94.18-162.85,28.23-48.25,66.08-48.28,94.49.76q236.76,408.59,472.88,817.51,142.2,245.88,284.57,491.69c7.39,12.76,15.47,25.26,21.55,38.64,16.06,35.31-.64,67.43-39.35,68.26-94.68,2-189.53,2.83-284.12-1.07-17.91-.74-40.91-21.81-51.34-39.51-142.78-242.71-283.75-486.49-425.26-730-7.15-12.33-15.21-24.16-27.73-43.93-140.09,242-276.3,477.22-416.54,719.43h542c-6.6-14.19-11.57-27.2-18.39-39.16q-70.53-123.27-141.78-246.17c-11.88-20.51-18.22-40.51-1-61.28,23.31-28.06,59.64-22.12,80.88,14.52,60.42,104.26,120.2,208.87,180.24,313.37,8,13.85,16.68,27.35,23.74,41.67,19.17,38.9,2.16,69.36-40.54,72.76-13.47,1.06-27.06.35-40.6.38-214.08.19-428.16,1.06-642.24-.5-21.78-.17-54-9.36-62.27-24.69-8.51-15.75.83-47.33,11.86-66.55q235.6-411.29,474.13-820.91c33.93-58.55,68.38-58.93,102.21-.81,150.33,258.25,301,516.31,449.64,775.48,19.53,34.05,39.89,50.71,80.35,46.48,38.33-4,77.37-.86,126.53-.86"/></g><g class="cls-6"><path class="cls-5" d="M4585.31,4165.73c-237.37-410.5-469.53-812-705.42-1220-12.66,19.8-22.78,34.27-31.57,49.52q-289.86,501.45-579.46,1003.08c-111.91,193.81-224.68,387.17-334.8,582-21.25,37.59-48.17,51.13-88.82,50.44-76.25-1.3-152.56-.14-228.83-.45-69.5-.31-87.42-30.65-53-90.26q214.74-372.27,429.82-744.34,142.07-245.94,284-492c5.27-9.14,8.86-19.24,16.25-35.59-57.92,0-110.2-1.35-162.3,1.19-9.67.47-21.22,15.06-27.42,25.75-126.1,216.89-251.22,434.31-377.45,651.1-15.26,26.18-22.86,63.42-64.39,62.8-39.09-.6-47-35.36-61.83-60.9q-198.2-341.36-394.51-683.79c-10.19-17.87-17.2-48.23-8.69-63,8.62-15,38.11-24.31,58.82-25,82.36-2.7,164.85-.47,247.28-1.45,28.91-.33,49.11,9.75,63.51,35.1,42.53,74.84,86.34,148.93,128.92,223.72,19.86,34.93,16.23,59.09-8.75,73.92-26.56,15.78-51.51,6.46-72.13-28.8-35.38-60.51-70.64-121.1-104.43-182.5-11.4-20.72-24.71-30.46-49.3-29.46-46,1.85-92.12.55-147.24.55l348.56,604c27.78-47.33,51.87-87.93,75.53-128.8,101-174.54,202.49-348.82,302.3-524.05,18.18-31.91,40.89-44.74,77.22-43.93,81.17,1.83,162.4.16,243.61.73,58.31.41,77.56,34.1,48.62,84.21q-355.08,615-710.24,1230c-7.17,12.45-13.52,25.4-24.47,46.07,60.14,0,113.43,1.62,166.49-1.42,10.14-.57,21.52-18.18,28.48-30.15q151.15-259.89,301.16-520.44L3737.22,3003c31.36-54.29,62.48-108.72,94.18-162.85,28.23-48.25,66.08-48.28,94.49.76q236.76,408.58,472.88,817.51,142.2,245.88,284.57,491.69c7.39,12.76,15.47,25.26,21.55,38.64,16.06,35.31-.64,67.43-39.35,68.26-94.68,2-189.53,2.83-284.12-1.07-17.91-.74-40.91-21.81-51.34-39.51-142.78-242.71-283.75-486.49-425.26-730-7.15-12.33-15.21-24.16-27.73-43.93-140.09,242-276.3,477.22-416.54,719.43h542c-6.6-14.19-11.57-27.2-18.39-39.16q-70.53-123.27-141.78-246.17c-11.88-20.51-18.22-40.51-1-61.28,23.31-28.06,59.64-22.12,80.88,14.52,60.42,104.26,120.2,208.87,180.24,313.37,8,13.85,16.68,27.35,23.74,41.67,19.17,38.9,2.16,69.36-40.54,72.76-13.47,1.06-27.06.35-40.6.38-214.08.19-428.16,1.06-642.24-.5-21.78-.17-54-9.36-62.27-24.69-8.51-15.75.83-47.33,11.86-66.55q235.61-411.29,474.13-820.91c33.93-58.55,68.38-58.93,102.21-.81,150.33,258.25,301,516.31,449.64,775.48,19.53,34.05,39.89,50.71,80.35,46.48,38.33-4,77.37-.86,126.53-.86"/></g></g></g></g></svg>