<svg xmlns="http://www.w3.org/2000/svg" xmlns:xlink="http://www.w3.org/1999/xlink" viewBox="0 0 1145.5 6364"><defs><style>.cls-1{fill:url(#Degradado_sin_nombre_46);}</style><linearGradient id="Degradado_sin_nombre_46" x1="1145.5" y1="3182" x2="0" y2="3182" gradientUnits="userSpaceOnUse"><stop offset="0" stop-color="#69b1f2"/><stop offset="1" stop-color="#69b1f2"/></linearGradient></defs><g id="Capa_2" data-name="Capa 2"><g id="Capa_1-2" data-name="Capa 1"><path class="cls-1" d="M1145.5,6364l-151-4,1-810.28a83.17,83.17,0,0,0-82.87-83l-630.36-1.28A275.12,275.12,0,0,1,7.72,5192.77L3.3,4704.18a275.13,275.13,0,0,1,271.78-277.59L903.3,4419c49.78-.6,90.32-41.59,90.37-91.37l.66-635A91.48,91.48,0,0,0,902.85,3601H253A252.52,252.52,0,0,1,.5,3348.5v-616A252.52,252.52,0,0,1,253,2480H897.46a96.93,96.93,0,0,0,96.94-97l-.4-659.46A54.64,54.64,0,0,0,939.7,1669l-763.1-3.07A177.32,177.32,0,0,1,0,1488.59V830.16C0,717.39,91.75,625.64,204.52,625.64l251.83.26L902,626h0a86.5,86.5,0,0,0,86.49-86.49v-.59L992.5,0h150l-4,539.85A236.5,236.5,0,0,1,902,776h0l-445.71-.08-251.82-.26A54.57,54.57,0,0,0,150,830.16v658.43a27.37,27.37,0,0,0,27.21,27.32L940.3,1519A204.51,204.51,0,0,1,1144,1723.5l.4,659.41A247,247,0,0,1,897.46,2630H253a102.61,102.61,0,0,0-102.5,102.5v616A102.61,102.61,0,0,0,253,3451H902.85a241.49,241.49,0,0,1,241.48,241.73l-.66,635A241.47,241.47,0,0,1,905.11,4569l-628.21,7.6c-68.78.83-124.22,57.46-123.6,126.24l4.41,488.59c.62,68.23,56.63,123.85,124.86,124l630.36,1.28a233,233,0,0,1,232.57,233Z"/></g></g></svg>